<?xml version="1.0" standalone="no"?>
<!DOCTYPE svg PUBLIC "-//W3C//DTD SVG 20010904//EN"
 "http://www.w3.org/TR/2001/REC-SVG-20010904/DTD/svg10.dtd">
<svg version="1.0" xmlns="http://www.w3.org/2000/svg"
 width="260.000000pt" height="260.000000pt" viewBox="0 0 260.000000 260.000000"
 preserveAspectRatio="xMidYMid meet">
<metadata>
Created by potrace 1.11, written by Peter Selinger 2001-2013
</metadata>
<g transform="translate(0.000000,260.000000) scale(0.100000,-0.100000)"
fill="#000000" stroke="none">
<path d="M0 1300 l0 -1300 1300 0 1300 0 0 1300 0 1300 -1300 0 -1300 0 0
-1300z m1417 601 c81 -38 148 -108 193 -200 18 -39 36 -71 39 -70 3 0 42 58
86 130 l79 129 159 0 c126 0 158 -3 154 -13 -3 -7 -89 -145 -191 -306 l-187
-293 51 -157 c57 -173 85 -229 133 -264 47 -36 91 -47 181 -47 l81 -1 -43 -38
c-83 -76 -192 -105 -305 -81 -111 23 -208 121 -252 255 -11 33 -20 62 -22 64
-1 2 -30 -22 -65 -54 -148 -133 -260 -203 -398 -247 -98 -30 -312 -33 -402 -5
-76 23 -175 91 -220 152 -61 81 -81 157 -76 284 6 126 40 229 114 348 56 90
195 239 279 298 206 146 448 192 612 116z"/>
<path d="M1082 1775 c-172 -80 -374 -412 -397 -651 -23 -238 118 -357 313
-264 139 66 290 215 427 423 l38 58 -12 66 c-32 176 -100 323 -170 370 -47 32
-128 31 -199 -2z"/>
</g>
</svg>
